<?xml version="1.0" standalone="no"?>
<!DOCTYPE svg PUBLIC "-//W3C//DTD SVG 20010904//EN"
 "http://www.w3.org/TR/2001/REC-SVG-20010904/DTD/svg10.dtd">
<svg version="1.0" xmlns="http://www.w3.org/2000/svg"
 width="82.000000pt" height="109.000000pt" viewBox="0 0 82.000000 109.000000"
 preserveAspectRatio="xMidYMid meet">

<g transform="translate(0.000000,109.000000) scale(0.100000,-0.100000)"
fill="#000000" stroke="none">
<path d="M32 968 l3 -83 375 0 375 0 3 83 3 82 -381 0 -381 0 3 -82z m718 -3
l0 -45 -340 0 -340 0 0 45 0 45 340 0 340 0 0 -45z"/>
<path d="M60 450 l0 -400 350 0 350 0 0 400 0 400 -350 0 -350 0 0 -400z m665
0 l0 -365 -312 -3 -313 -2 0 370 0 370 313 -2 312 -3 0 -365z"/>
<path d="M186 752 c-3 -3 -6 -149 -6 -324 l0 -318 25 0 25 0 0 319 c0 307 -1
319 -19 324 -11 3 -22 2 -25 -1z"/>
<path d="M310 430 c0 -313 0 -320 20 -320 20 0 20 7 20 320 0 313 0 320 -20
320 -20 0 -20 -7 -20 -320z"/>
<path d="M440 430 c0 -313 0 -320 20 -320 20 0 20 7 20 320 0 313 0 320 -20
320 -20 0 -20 -7 -20 -320z"/>
<path d="M570 430 l0 -320 25 0 25 0 0 320 0 320 -25 0 -25 0 0 -320z"/>
</g>
</svg>
